<?xml version="1.0" encoding="UTF-8" standalone="no"?>
<!-- Generator: Adobe Illustrator 19.2.1, SVG Export Plug-In . SVG Version: 6.00 Build 0)  -->

<svg
   xmlns:dc="http://purl.org/dc/elements/1.1/"
   xmlns:cc="http://creativecommons.org/ns#"
   xmlns:rdf="http://www.w3.org/1999/02/22-rdf-syntax-ns#"
   xmlns:svg="http://www.w3.org/2000/svg"
   xmlns="http://www.w3.org/2000/svg"
   xmlns:sodipodi="http://sodipodi.sourceforge.net/DTD/sodipodi-0.dtd"
   xmlns:inkscape="http://www.inkscape.org/namespaces/inkscape"
   version="1.1"
   id="Layer_1"
   x="0px"
   y="0px"
   viewBox="0 0 1093.2188 819.91408"
   xml:space="preserve"
   sodipodi:docname="ropensci.svg"
   width="1093.2188"
   height="819.91406"
   inkscape:version="0.92.4 (5da689c313, 2019-01-14)"><metadata
   id="metadata211"><rdf:RDF><cc:Work
       rdf:about=""><dc:format>image/svg+xml</dc:format><dc:type
         rdf:resource="http://purl.org/dc/dcmitype/StillImage" /><dc:title></dc:title></cc:Work></rdf:RDF></metadata><defs
   id="defs209" /><sodipodi:namedview
   pagecolor="#ffffff"
   bordercolor="#666666"
   borderopacity="1"
   objecttolerance="10"
   gridtolerance="10"
   guidetolerance="10"
   inkscape:pageopacity="0"
   inkscape:pageshadow="2"
   inkscape:window-width="1366"
   inkscape:window-height="705"
   id="namedview207"
   showgrid="false"
   fit-margin-top="0"
   fit-margin-left="0"
   fit-margin-right="0"
   fit-margin-bottom="0"
   inkscape:zoom="0.73473684"
   inkscape:cx="530.97424"
   inkscape:cy="736.56564"
   inkscape:window-x="-8"
   inkscape:window-y="-8"
   inkscape:window-maximized="1"
   inkscape:current-layer="g198" />
<style
   type="text/css"
   id="style2">
	.st0{opacity:0.7;}
	.st1{fill:#1A1A1A;}
</style>
<g
   class="st0"
   id="g164"
   style="opacity:0.7;fill:#333333"
   transform="matrix(1.5580833,0,0,1.5580833,-9.5432098,-21.270866)">
	<g
   id="g6"
   style="fill:#333333">
		<path
   class="st1"
   d="m 363.7,286.4 -108.9,-0.7 -0.6,-1.8 100,-69.5 z m -105.7,-2.7 103.4,0.7 -8.7,-66.5 z"
   id="path4"
   inkscape:connector-curvature="0"
   style="fill:#333333" />
	</g>
	<g
   id="g10"
   style="fill:#333333">
		<path
   class="st1"
   d="m 327.3,356.9 -70.2,-53.9 0.5,-1.8 104.9,-16.8 1,1.4 z m -67.2,-54.1 66.5,51 34.2,-67.1 z"
   id="path8"
   inkscape:connector-curvature="0"
   style="fill:#333333" />
	</g>
	<g
   id="g14"
   style="fill:#333333">
		<path
   class="st1"
   d="m 256.8,303.3 -3.1,-19.6 108.9,0.7 0.2,2 z m -0.8,-17.6 2.5,15.3 92,-14.7 z"
   id="path12"
   inkscape:connector-curvature="0"
   style="fill:#333333" />
	</g>
	<g
   id="g18"
   style="fill:#333333">
		<path
   class="st1"
   d="m 254.1,286.4 -15.1,-91.1 114.7,19.8 0.4,1.8 z m -12.7,-88.6 14.2,85.2 95.3,-66.3 z"
   id="path16"
   inkscape:connector-curvature="0"
   style="fill:#333333" />
	</g>
	<g
   id="g22"
   style="fill:#333333">
		<path
   class="st1"
   d="m 281.5,359.9 -24.8,-57.3 1.5,-1.2 69.2,53.2 -0.5,1.8 z m -21.4,-54.6 22.7,52.5 41.5,-3.2 z"
   id="path20"
   inkscape:connector-curvature="0"
   style="fill:#333333" />
	</g>
	<g
   id="g26"
   style="fill:#333333">
		<path
   class="st1"
   d="m 254.1,285.4 -57.5,-67.4 44.3,-22.9 14.9,89.5 z m -54.3,-66.8 53.5,62.7 -13.9,-83.2 z"
   id="path24"
   inkscape:connector-curvature="0"
   style="fill:#333333" />
	</g>
	<g
   id="g30"
   style="fill:#333333">
		<path
   class="st1"
   d="m 281.7,359.7 -73.4,-39.9 0.2,-1.8 8.1,-2.2 66.1,42.2 z m -70.3,-40.4 46.4,25.2 -41.6,-26.5 z"
   id="path28"
   inkscape:connector-curvature="0"
   style="fill:#333333" />
	</g>
	<g
   id="g34"
   style="fill:#333333">
		<path
   class="st1"
   d="m 186.8,417.8 -1.5,-1.1 22.7,-99.2 74.6,40.5 v 1.7 z m 22.6,-97.3 -21.6,94.3 92.3,-55.9 z"
   id="path32"
   inkscape:connector-curvature="0"
   style="fill:#333333" />
	</g>
	<g
   id="g38"
   style="fill:#333333">
		<path
   class="st1"
   d="m 254.8,432.8 -68.7,-14.9 -0.3,-1.8 95.8,-58.1 1.5,1.2 z m -65.8,-16.3 64.6,14 26.6,-69.2 z"
   id="path36"
   inkscape:connector-curvature="0"
   style="fill:#333333" />
	</g>
	<g
   id="g42"
   style="fill:#333333">
		<path
   class="st1"
   d="m 281.6,359.7 -65.8,-42 0.2,-1.8 42.2,-15 24.9,57.5 z m -62.9,-42.6 61.3,39.1 -22.8,-52.8 z"
   id="path40"
   inkscape:connector-curvature="0"
   style="fill:#333333" />
	</g>
	<g
   id="g46"
   style="fill:#333333">
		<path
   class="st1"
   d="M 203.8,99.3 184.4,77 217,26.7 l 1.8,0.7 -13.3,71.3 z m -16.9,-22.4 17,19.6 12,-64.3 z"
   id="path44"
   inkscape:connector-curvature="0"
   style="fill:#333333" />
	</g>
	<g
   id="g50"
   style="fill:#333333">
		<path
   class="st1"
   d="m 228.3,451 -42.6,-33.3 0.8,-1.8 67.9,14.7 0.4,1.8 z m -37.9,-32.2 38,29.7 23.4,-16.4 z"
   id="path48"
   inkscape:connector-curvature="0"
   style="fill:#333333" />
	</g>
	<g
   id="g54"
   style="fill:#333333">
		<path
   class="st1"
   d="m 215.7,318.7 -18.5,-100.3 1.7,-0.8 57.3,67.2 z m -15.8,-97 17.2,93.3 36.4,-30.4 z"
   id="path52"
   inkscape:connector-curvature="0"
   style="fill:#333333" />
	</g>
	<g
   id="g58"
   style="fill:#333333">
		<path
   class="st1"
   d="m 216.7,317.8 -1,-1.7 38.5,-32.2 1.6,0.6 2.9,18.3 z m 37.5,-31.2 -32.8,27.5 35.2,-12.5 z"
   id="path56"
   inkscape:connector-curvature="0"
   style="fill:#333333" />
	</g>
	<g
   id="g62"
   style="fill:#333333">
		<path
   class="st1"
   d="m 179.4,210.5 24.1,-112 1.9,-0.1 36.1,99 z m 25.4,-108.3 -22.8,105.7 56.8,-12 z"
   id="path60"
   inkscape:connector-curvature="0"
   style="fill:#333333" />
	</g>
	<g
   id="g66"
   style="fill:#333333">
		<path
   class="st1"
   d="m 181.4,210.6 -23,-10.7 45.2,-101.6 1.9,0.6 z m -20.3,-11.7 19,8.8 21.5,-99.8 z"
   id="path64"
   inkscape:connector-curvature="0"
   style="fill:#333333" />
	</g>
	<g
   id="g70"
   style="fill:#333333">
		<path
   class="st1"
   d="m 207.8,320.3 -10.6,-101.9 2,-0.3 18.4,99.5 z m -6,-76.8 7.7,74.2 5.7,-1.5 z"
   id="path68"
   inkscape:connector-curvature="0"
   style="fill:#333333" />
	</g>
	<g
   id="g74"
   style="fill:#333333">
		<path
   class="st1"
   d="m 187,418.2 -15.3,-5.6 36,-94 1.9,0.6 z m -12.7,-6.8 11.3,4.2 19,-83.1 z"
   id="path72"
   inkscape:connector-curvature="0"
   style="fill:#333333" />
	</g>
	<g
   id="g78"
   style="fill:#333333">
		<path
   class="st1"
   d="m 198.2,219.4 -17.9,-9.3 0.3,-1.9 59.5,-12.6 0.7,1.9 z m -14.5,-9.8 14.6,7.6 34.9,-18 z"
   id="path76"
   inkscape:connector-curvature="0"
   style="fill:#333333" />
	</g>
	<g
   id="g82"
   style="fill:#333333">
		
			<rect
   x="140.2"
   y="438.60001"
   transform="rotate(-53.494506,141.1919,493.83745)"
   class="st1"
   width="2"
   height="110.5"
   id="rect80"
   style="fill:#333333" />
	</g>
	<g
   id="g86"
   style="fill:#333333">
		<path
   class="st1"
   d="m 174,412.4 -1.9,-0.1 -22,-95.7 60.1,1.5 z m -21.4,-93.8 20.7,90 34,-88.6 z"
   id="path84"
   inkscape:connector-curvature="0"
   style="fill:#333333" />
	</g>
	<g
   id="g90"
   style="fill:#333333">
		<path
   class="st1"
   d="m 209.8,320 -60,-1.5 47.5,-100.7 1.9,0.3 z m -56.9,-3.4 54.7,1.3 -10,-96 z"
   id="path88"
   inkscape:connector-curvature="0"
   style="fill:#333333" />
	</g>
	<g
   id="g94"
   style="fill:#333333">
		<path
   class="st1"
   d="m 186.4,506.3 -1.8,-0.6 0.7,-88.8 1.6,-0.8 42.7,33.5 z m 0.9,-87.4 -0.7,83.8 40.3,-52.8 z"
   id="path92"
   inkscape:connector-curvature="0"
   style="fill:#333333" />
	</g>
	<g
   id="g98"
   style="fill:#333333">
		<path
   class="st1"
   d="m 152.2,318 -1.9,-0.7 29.7,-109.6 19.4,10.1 z m 29.2,-107.4 -26.1,96.3 41.6,-88.2 z"
   id="path96"
   inkscape:connector-curvature="0"
   style="fill:#333333" />
	</g>
	<g
   id="g102"
   style="fill:#333333">
		<path
   class="st1"
   d="m 185.9,78.3 -69.4,-38.9 0.4,-1.9 100.7,-11.2 0.9,1.5 z m -65.6,-39.2 65,36.5 30.5,-47.1 z"
   id="path100"
   inkscape:connector-curvature="0"
   style="fill:#333333" />
	</g>
	<g
   id="g106"
   style="fill:#333333">
		<path
   class="st1"
   d="m 151.1,414.5 -0.7,-96.9 2,-0.2 21.9,95.6 z m 1.3,-87.8 0.6,85.6 18.8,-1.3 z"
   id="path104"
   inkscape:connector-curvature="0"
   style="fill:#333333" />
	</g>
	<g
   id="g110"
   style="fill:#333333">
		<path
   class="st1"
   d="m 184.7,506.1 -34,-93.6 23.2,-1.5 12.7,94.7 z m -31.3,-91.8 30,82.4 -11.2,-83.6 z"
   id="path108"
   inkscape:connector-curvature="0"
   style="fill:#333333" />
	</g>
	<g
   id="g114"
   style="fill:#333333">
		<path
   class="st1"
   d="m 184.6,505.9 -12.8,-95.4 15.5,5.7 -0.7,89.5 z m -10.4,-92.4 10.5,78.1 0.6,-74 z"
   id="path112"
   inkscape:connector-curvature="0"
   style="fill:#333333" />
	</g>
	<g
   id="g118"
   style="fill:#333333">
		<path
   class="st1"
   d="m 160.7,199.8 -1.9,-0.6 25.9,-122.4 1.7,-0.4 19.3,22.2 -0.3,0.6 z M 186.2,79.1 162.7,190.3 203.4,98.8 Z"
   id="path116"
   inkscape:connector-curvature="0"
   style="fill:#333333" />
	</g>
	<g
   id="g122"
   style="fill:#333333">
		<path
   class="st1"
   d="m 152.3,317.8 -2,-0.3 8.5,-119.7 23.1,10.8 z m 8.3,-116.9 -7.6,106.5 26.5,-97.7 z"
   id="path120"
   inkscape:connector-curvature="0"
   style="fill:#333333" />
	</g>
	<g
   id="g126"
   style="fill:#333333">
		<path
   class="st1"
   d="M 160.5,200.5 58.8,179.4 58.4,177.6 185,76.2 l 1.6,1 z M 61.3,177.8 159,198.1 184.1,79.4 Z"
   id="path124"
   inkscape:connector-curvature="0"
   style="fill:#333333" />
	</g>
	<g
   id="g130"
   style="fill:#333333">
		<path
   class="st1"
   d="M 185.2,506.6 95,461.2 l 57.5,-49.5 34.1,93.7 z m -86.6,-45.8 85.2,43 -32.2,-88.6 z"
   id="path128"
   inkscape:connector-curvature="0"
   style="fill:#333333" />
	</g>
	<g
   id="g134"
   style="fill:#333333">
		<path
   class="st1"
   d="M 59.6,179.2 58.1,178 116.6,37.1 187.4,76.8 Z M 117.6,39.9 61.4,175.2 183.8,77.1 Z"
   id="path132"
   inkscape:connector-curvature="0"
   style="fill:#333333" />
	</g>
	<g
   id="g138"
   style="fill:#333333">
		<path
   class="st1"
   d="m 185,527.5 -88.8,-65.8 1,-1.7 89.4,45 v 21.6 z m -78.2,-60.4 77.8,57.6 v -18.4 z"
   id="path136"
   inkscape:connector-curvature="0"
   style="fill:#333333" />
	</g>
	<g
   id="g142"
   style="fill:#333333">
		<path
   class="st1"
   d="m 150.5,318.1 -86,-123.8 0.9,-1.6 95.4,5.7 -8.5,119.2 z m -83.2,-123.2 83.2,119.8 8.1,-114.4 z"
   id="path140"
   inkscape:connector-curvature="0"
   style="fill:#333333" />
	</g>
	<g
   id="g146"
   style="fill:#333333">
		<path
   class="st1"
   d="M 153.1,414.4 H 86.3 l -0.8,-1.6 65.1,-95.8 1.8,0.6 z m -64.9,-2 H 151 l -0.7,-91.6 z"
   id="path144"
   inkscape:connector-curvature="0"
   style="fill:#333333" />
	</g>
	<g
   id="g150"
   style="fill:#333333">
		<path
   class="st1"
   d="M 58.2,178.9 17.1,113.1 116.5,37.7 118,38.9 59.9,178.8 Z M 19.8,113.6 58.9,176.2 114.8,41.5 Z"
   id="path148"
   inkscape:connector-curvature="0"
   style="fill:#333333" />
	</g>
	<g
   id="g154"
   style="fill:#333333">
		<path
   class="st1"
   d="m 19.8,337.7 44.5,-144.2 1.8,-0.3 87,125.1 z M 65.7,196 22.7,335.2 149.6,316.8 Z"
   id="path152"
   inkscape:connector-curvature="0"
   style="fill:#333333" />
	</g>
	<g
   id="g158"
   style="fill:#333333">
		<path
   class="st1"
   d="m 159.7,200.4 -95.1,-5.6 -6.5,-16 1.1,-1.4 100.7,21 z m -93.7,-7.6 80.2,4.8 -85.5,-17.8 z"
   id="path156"
   inkscape:connector-curvature="0"
   style="fill:#333333" />
	</g>
	<g
   id="g162"
   style="fill:#333333">
		<path
   class="st1"
   d="M 96.2,462.8 85,412.4 h 67 l 0.7,1.8 z m -8.7,-48.4 9.9,44.7 51.9,-44.7 z"
   id="path160"
   inkscape:connector-curvature="0"
   style="fill:#333333" />
	</g>
</g>
<g
   id="g204"
   transform="matrix(0.63267209,0,0,0.63267209,48.487436,-23.027156)">
	<g
   id="g198">
		<g
   id="g168"
   style="fill:#333333"
   transform="translate(-14.433148,-26.569687)">
			<path
   class="st1"
   d="m 592.7,309.5 c -0.3,-1.6 -0.7,-3.3 -1.1,-4.9 -0.5,-1.9 -1.2,-3.7 -2,-5.5 -0.1,-0.2 -0.2,-0.5 -0.3,-0.7 -7,-15.3 -22.3,-26.2 -40,-26.5 -15.3,-0.3 -28.9,7.2 -37.2,18.7 -1.8,2.4 -3.3,5.1 -4.6,7.9 -0.1,0.2 -0.2,0.4 -0.3,0.7 -0.8,1.8 -1.4,3.6 -2,5.5 -0.5,1.6 -0.8,3.2 -1.1,4.9 -0.3,1.5 -0.5,3.1 -0.6,4.7 -0.1,1.3 -0.1,2.5 -0.1,3.8 0,2.1 0.2,4.2 0.6,6.2 0.3,1.9 0.7,3.7 1.2,5.5 5.4,18.5 22.3,32.3 42.4,32.7 15.3,0.3 28.9,-7.2 37.2,-18.7 l -23.2,-8.5 c -3.3,3.1 -7.6,4.9 -12.1,5.1 -7.8,0.4 -14.4,-3.5 -17.9,-10.7 -0.8,-1.7 -1.5,-3.5 -1.9,-5.5 h 1.5 36.5 25.3 c 0.2,-1.3 0.4,-2.7 0.5,-4.1 0.1,-1.3 0.1,-2.5 0.1,-3.8 -0.3,-2.3 -0.5,-4.6 -0.9,-6.8 z m -63.3,0 c 0.5,-1.7 1.1,-3.4 1.9,-4.9 1.1,-2.1 2.4,-3.9 4,-5.5 h 0.1 -0.1 c 0.2,-0.2 0.5,-0.4 0.7,-0.6 3.2,-2.8 7.1,-4.6 11.3,-4.8 5.2,-0.3 9.8,1.5 13.4,4.8 0.2,0.2 0.5,0.4 0.7,0.7 1.5,1.5 2.8,3.4 3.8,5.5 0.7,1.5 1.3,3.1 1.8,4.9 h -3.1 -34.5 z"
   id="path166"
   inkscape:connector-curvature="0"
   style="fill:#333333" />
		</g>
		<g
   id="g172"
   style="fill:#333333"
   transform="translate(-14.433148,-26.569687)">
			<path
   class="st1"
   d="m 300.7,211.5 c 0,-17.1 -10.4,-31.8 -25.2,-38.1 -5,-2.1 -10.4,-3.3 -16.1,-3.3 h -48.7 -0.1 l 0.1,115.2 h 25.1 v -32.5 h 18.6 l 15.9,32.5 h 27.4 l -18.8,-37.4 c 13,-7 21.8,-20.7 21.8,-36.4 z m -25.1,0 c 0,9 -7.3,16.3 -16.3,16.3 h -23.5 v -32.5 h 23.5 c 9,-0.1 16.3,7.2 16.3,16.2 z"
   id="path170"
   inkscape:connector-curvature="0"
   style="fill:#333333" />
		</g>
		<g
   id="g176"
   style="fill:#333333"
   transform="translate(-14.433148,-26.569687)">
			<path
   class="st1"
   d="m 331.9,248.4 v -8.9 l -21.3,19.5 21.3,20.4 v -8.9 c 20.3,0 32.4,17.6 32.4,35.5 0,17.9 -12.5,36.1 -32.4,36.1 -21.6,0 -32.4,-18.2 -32.4,-36.1 h -25.2 c 0,31.8 25.8,57.6 57.6,57.6 31.8,0 57.6,-25.8 57.6,-57.6 0.1,-31.9 -25.7,-57.6 -57.6,-57.6 z"
   id="path174"
   inkscape:connector-curvature="0"
   style="fill:#333333" />
		</g>
		<g
   id="g180"
   style="fill:#333333"
   transform="translate(-14.433148,-26.569687)">
			<path
   class="st1"
   d="m 862.8,326.8 c -2.8,8.4 -9.7,13.2 -17.4,13.6 -8.8,0.4 -16,-4.6 -19.2,-13.7 -0.7,-2 -1.2,-4.2 -1.4,-6.6 -0.1,-1.3 -0.2,-2.6 -0.2,-4 0,-0.6 0,-1.3 0.1,-1.9 0.2,-2.4 0.6,-4.6 1.4,-6.7 2.9,-8.1 9.7,-13.5 17.3,-13.9 8.8,-0.4 16,4.8 19.1,14 l 24.7,-4.4 c -5.8,-17.8 -22.4,-31 -41.9,-31.3 -20.4,-0.4 -37.7,13 -43.7,31.3 -1.3,3.9 -2,8.1 -2.2,12.4 0,0.8 0,1.6 0,2.4 0,0.2 0,0.5 0,0.7 0.1,4.3 0.9,8.4 2.2,12.4 5.8,17.8 22.4,31 41.9,31.3 20.4,0.4 37.7,-13 43.7,-31.3 z"
   id="path178"
   inkscape:connector-curvature="0"
   style="fill:#333333" />
		</g>
		<g
   id="g184"
   style="fill:#333333"
   transform="translate(-14.433148,-26.569687)">
			<rect
   x="899.5"
   y="274.60001"
   class="st1"
   width="25.1"
   height="85.900002"
   id="rect182"
   style="fill:#333333" />
		</g>
		<g
   id="g188"
   style="fill:#333333"
   transform="translate(-14.433148,-26.569687)">
			<path
   class="st1"
   d="m 922.8,257.8 h -21.1 c -1.1,0 -2.1,-0.9 -2.1,-2.1 v -21.1 c 0,-1.1 0.9,-2.1 2.1,-2.1 h 21.1 c 1.1,0 2.1,0.9 2.1,2.1 v 21.1 c 0,1.2 -1,2.1 -2.1,2.1 z"
   id="path186"
   inkscape:connector-curvature="0"
   style="fill:#333333" />
		</g>
		<g
   id="g192"
   style="fill:#333333"
   transform="translate(-14.433148,-26.569687)">
			<path
   class="st1"
   d="m 783.6,305.8 c -7.7,-9.8 -26.8,-16.6 -36.1,-20 -8.3,-3 -11.3,-5.4 -11.2,-9.5 0.3,-7.8 7.9,-9.5 13,-9.5 11.3,0 13,11.9 13,11.9 l 22.2,-5.5 c 0,0 -4.3,-28.1 -38.9,-28.1 -11.2,0 -23.4,6.6 -29.8,15 -5.7,7.5 -6.4,16.7 -2.7,25.9 4.9,12.3 15,16 25.2,19.7 7.6,2.8 17.8,5.6 24.2,12 3.1,3.1 3.7,8.4 1.5,12.9 -2.3,4.9 -8.8,8.3 -15.1,8.3 -13.8,0 -19.4,-12.4 -19.6,-12.9 l -0.7,-1.7 -25,5 0.6,2.1 c 0.1,0.3 2.3,7.8 9,15.4 6.2,7 17.5,15.4 36.4,15.4 16.1,0 28.9,-6.9 35.8,-19.4 6.5,-11.6 6.8,-26.1 -1.8,-37 z"
   id="path190"
   inkscape:connector-curvature="0"
   style="fill:#333333" />
		</g>
		<g
   id="g196"
   style="fill:#333333"
   transform="translate(-14.433148,-26.569687)">
			<path
   class="st1"
   d="m 452,272 c -9.1,-0.2 -18.5,2.4 -23.4,7 v -4.2 h -25.1 v 125.9 h 25.1 v -45 c 4.4,4.2 13.3,6.7 21.7,6.9 25.5,0.5 43.5,-20.6 43.1,-46.1 C 492.9,292.4 476,272.5 452,272 Z m -2.6,68.6 c -11.7,0.6 -20.7,-8.5 -20.8,-24 V 316 c 0.1,-12.6 8.7,-21.8 18.7,-22.3 11.7,-0.6 20.8,9.1 20.8,24.6 0,13.7 -8.7,21.7 -18.7,22.3 z"
   id="path194"
   inkscape:connector-curvature="0"
   style="fill:#333333" />
		</g>
	</g>
	<g
   id="g202"
   style="fill:#333333"
   transform="translate(-14.433148,-26.569687)">
		<path
   class="st1"
   d="m 651,272.3 c -15,0 -22,9.9 -22,9.9 v -7.6 h -23.4 v 85.9 H 629 c 0,0 0,-27.2 0,-40.4 0,-14.1 6.5,-25.3 18,-25.3 11.5,0 17.7,10 17.7,25.3 v 40.4 h 23.7 c 0,0 0,-38.6 0,-47.9 0,-9.2 -2.2,-40.3 -37.4,-40.3 z"
   id="path200"
   inkscape:connector-curvature="0"
   style="fill:#333333" />
	</g>
</g>
<rect
   style="opacity:1;fill:none;fill-opacity:1;stroke:none;stroke-width:4.59200716;stroke-miterlimit:4;stroke-dasharray:none"
   id="rect3916"
   width="1093.2188"
   height="819.91406"
   x="0"
   y="0" /></svg>